<svg xmlns="http://www.w3.org/2000/svg" viewBox="0 0 16 16" height="16" width="16"><title>marker-11.svg</title><rect fill="none" x="0" y="0" width="16" height="16"></rect><path fill="#f0e1e1" transform="translate(2 2)" d="M5.5-0.0176c-1.7866,0-3.8711,1.0918-3.8711,3.8711
	C1.6289,5.7393,4.6067,9.9082,5.5,11c0.7941-1.0918,3.871-5.1614,3.871-7.1466C9.371,1.0742,7.2866-0.0176,5.5-0.0176z" style="stroke-linejoin:round;stroke-miterlimit:4;" stroke="#f0e1e1" stroke-width="1"></path><path fill="#2e6be6" transform="translate(2 2)" d="M5.5-0.0176c-1.7866,0-3.8711,1.0918-3.8711,3.8711
	C1.6289,5.7393,4.6067,9.9082,5.5,11c0.7941-1.0918,3.871-5.1614,3.871-7.1466C9.371,1.0742,7.2866-0.0176,5.5-0.0176z"></path></svg>