<svg id="svg" version="1.1" xmlns="http://www.w3.org/2000/svg" xmlns:xlink="http://www.w3.org/1999/xlink" width="400" height="400" viewBox="0, 0, 400,400"><g id="svgg"><path id="path0" d="M182.900 0.275 C 181.525 0.365,180.400 0.610,180.400 0.819 C 180.400 1.029,179.421 1.200,178.224 1.200 C 177.027 1.200,175.936 1.380,175.800 1.600 C 175.664 1.820,174.843 2.000,173.976 2.000 C 173.109 2.000,172.400 2.180,172.400 2.400 C 172.400 2.620,171.680 2.800,170.800 2.800 C 169.920 2.800,169.200 2.980,169.200 3.200 C 169.200 3.420,168.660 3.600,168.000 3.600 C 167.340 3.600,166.800 3.780,166.800 4.000 C 166.800 4.220,166.271 4.400,165.624 4.400 C 164.977 4.400,164.336 4.580,164.200 4.800 C 164.064 5.020,163.513 5.200,162.976 5.200 C 162.439 5.200,162.000 5.380,162.000 5.600 C 162.000 5.820,161.460 6.000,160.800 6.000 C 160.140 6.000,159.600 6.180,159.600 6.400 C 159.600 6.620,159.161 6.800,158.624 6.800 C 158.087 6.800,157.536 6.980,157.400 7.200 C 157.264 7.420,156.803 7.600,156.376 7.600 C 155.949 7.600,155.600 7.780,155.600 8.000 C 155.600 8.220,155.240 8.400,154.800 8.400 C 154.360 8.400,154.000 8.580,154.000 8.800 C 154.000 9.020,153.561 9.200,153.024 9.200 C 152.487 9.200,151.936 9.380,151.800 9.600 C 151.664 9.820,151.203 10.000,150.776 10.000 C 150.349 10.000,150.000 10.180,150.000 10.400 C 150.000 10.620,149.640 10.800,149.200 10.800 C 148.760 10.800,148.400 10.980,148.400 11.200 C 148.400 11.420,148.040 11.600,147.600 11.600 C 147.160 11.600,146.800 11.780,146.800 12.000 C 146.800 12.220,146.564 12.400,146.275 12.400 C 145.987 12.400,145.364 12.760,144.892 13.200 C 144.420 13.640,143.756 14.000,143.417 14.000 C 143.078 14.000,142.800 14.180,142.800 14.400 C 142.800 14.620,142.522 14.800,142.183 14.800 C 141.844 14.800,141.180 15.160,140.708 15.600 C 140.236 16.040,139.613 16.400,139.325 16.400 C 139.036 16.400,138.800 16.580,138.800 16.800 C 138.800 17.020,138.564 17.200,138.275 17.200 C 137.987 17.200,137.364 17.560,136.892 18.000 C 136.420 18.440,135.873 18.800,135.676 18.800 C 135.479 18.800,134.754 19.340,134.063 20.000 C 133.372 20.660,132.608 21.200,132.364 21.200 C 132.120 21.200,131.417 21.740,130.800 22.400 C 130.183 23.060,129.497 23.600,129.274 23.600 C 129.052 23.600,127.773 24.680,126.432 26.000 C 125.092 27.320,123.818 28.400,123.601 28.400 C 123.117 28.400,115.600 35.958,115.600 36.445 C 115.600 36.637,114.520 37.892,113.200 39.232 C 111.880 40.573,110.800 41.836,110.800 42.039 C 110.800 42.241,110.260 42.972,109.600 43.663 C 108.940 44.354,108.400 45.122,108.400 45.371 C 108.400 45.620,108.040 46.083,107.600 46.400 C 107.160 46.717,106.800 47.162,106.799 47.388 C 106.799 47.615,106.259 48.430,105.600 49.200 C 104.941 49.970,104.401 50.825,104.401 51.100 C 104.400 51.375,104.220 51.600,104.000 51.600 C 103.780 51.600,103.600 51.920,103.600 52.312 C 103.600 52.703,103.240 53.283,102.800 53.600 C 102.360 53.917,102.000 54.497,102.000 54.888 C 102.000 55.280,101.820 55.600,101.600 55.600 C 101.380 55.600,101.200 55.878,101.200 56.217 C 101.200 56.556,100.840 57.220,100.400 57.692 C 99.960 58.164,99.600 58.787,99.600 59.075 C 99.600 59.364,99.420 59.600,99.200 59.600 C 98.980 59.600,98.800 59.960,98.800 60.400 C 98.800 60.840,98.620 61.200,98.400 61.200 C 98.180 61.200,98.000 61.560,98.000 62.000 C 98.000 62.440,97.820 62.800,97.600 62.800 C 97.380 62.800,97.200 63.160,97.200 63.600 C 97.200 64.040,97.020 64.400,96.800 64.400 C 96.580 64.400,96.400 64.760,96.400 65.200 C 96.400 65.640,96.220 66.000,96.000 66.000 C 95.780 66.000,95.600 66.439,95.600 66.976 C 95.600 67.513,95.420 68.064,95.200 68.200 C 94.980 68.336,94.800 68.797,94.800 69.224 C 94.800 69.651,94.620 70.000,94.400 70.000 C 94.180 70.000,94.000 70.349,94.000 70.776 C 94.000 71.203,93.820 71.664,93.600 71.800 C 93.380 71.936,93.200 72.487,93.200 73.024 C 93.200 73.561,93.020 74.000,92.800 74.000 C 92.580 74.000,92.400 74.540,92.400 75.200 C 92.400 75.860,92.220 76.400,92.000 76.400 C 91.780 76.400,91.600 76.940,91.600 77.600 C 91.600 78.260,91.420 78.800,91.200 78.800 C 90.980 78.800,90.800 79.340,90.800 80.000 C 90.800 80.660,90.620 81.200,90.400 81.200 C 90.180 81.200,90.000 81.920,90.000 82.800 C 90.000 83.680,89.820 84.400,89.600 84.400 C 89.380 84.400,89.200 85.120,89.200 86.000 C 89.200 86.880,89.020 87.600,88.800 87.600 C 88.580 87.600,88.400 88.399,88.400 89.376 C 88.400 90.353,88.220 91.264,88.000 91.400 C 87.780 91.536,87.600 92.537,87.600 93.624 C 87.600 94.711,87.420 95.600,87.200 95.600 C 86.969 95.600,86.800 96.859,86.800 98.576 C 86.800 100.213,86.620 101.664,86.400 101.800 C 85.853 102.138,85.853 131.462,86.400 131.800 C 86.620 131.936,86.800 133.387,86.800 135.024 C 86.800 136.741,86.969 138.000,87.200 138.000 C 87.422 138.000,87.600 139.067,87.600 140.400 C 87.600 141.733,87.778 142.800,88.000 142.800 C 88.220 142.800,88.400 143.599,88.400 144.576 C 88.400 145.553,88.580 146.464,88.800 146.600 C 89.020 146.736,89.200 147.557,89.200 148.424 C 89.200 149.291,89.380 150.000,89.600 150.000 C 89.820 150.000,90.000 150.720,90.000 151.600 C 90.000 152.480,90.180 153.200,90.400 153.200 C 90.620 153.200,90.800 153.729,90.800 154.376 C 90.800 155.023,90.980 155.664,91.200 155.800 C 91.420 155.936,91.600 156.566,91.600 157.200 C 91.600 157.834,91.780 158.464,92.000 158.600 C 92.220 158.736,92.400 159.377,92.400 160.024 C 92.400 160.671,92.580 161.200,92.800 161.200 C 93.020 161.200,93.200 161.639,93.200 162.176 C 93.200 162.713,93.380 163.264,93.600 163.400 C 93.820 163.536,94.000 163.997,94.000 164.424 C 94.000 164.851,94.180 165.200,94.400 165.200 C 94.620 165.200,94.800 165.740,94.800 166.400 C 94.800 167.060,94.980 167.600,95.200 167.600 C 95.420 167.600,95.600 167.960,95.600 168.400 C 95.600 168.840,95.780 169.200,96.000 169.200 C 96.220 169.200,96.400 169.740,96.400 170.400 C 96.400 171.060,96.580 171.600,96.800 171.600 C 97.020 171.600,97.200 171.960,97.200 172.400 C 97.200 172.840,97.380 173.200,97.600 173.200 C 97.820 173.200,98.000 173.560,98.000 174.000 C 98.000 174.440,98.180 174.800,98.400 174.800 C 98.620 174.800,98.800 175.239,98.800 175.776 C 98.800 176.313,98.980 176.864,99.200 177.000 C 99.420 177.136,99.600 177.597,99.600 178.024 C 99.600 178.451,99.780 178.800,100.000 178.800 C 100.220 178.800,100.400 179.160,100.400 179.600 C 100.400 180.040,100.580 180.400,100.800 180.400 C 101.020 180.400,101.200 180.760,101.200 181.200 C 101.200 181.640,101.380 182.000,101.600 182.000 C 101.820 182.000,102.000 182.360,102.000 182.800 C 102.000 183.240,102.180 183.600,102.400 183.600 C 102.620 183.600,102.800 183.960,102.800 184.400 C 102.800 184.840,102.980 185.200,103.200 185.200 C 103.420 185.200,103.600 185.560,103.600 186.000 C 103.600 186.440,103.780 186.800,104.000 186.800 C 104.220 186.800,104.400 187.160,104.400 187.600 C 104.400 188.040,104.580 188.400,104.800 188.400 C 105.020 188.400,105.200 188.760,105.200 189.200 C 105.200 189.640,105.380 190.000,105.600 190.000 C 105.820 190.000,106.000 190.360,106.000 190.800 C 106.000 191.240,106.180 191.600,106.400 191.600 C 106.620 191.600,106.800 191.960,106.800 192.400 C 106.800 192.840,106.980 193.200,107.200 193.200 C 107.420 193.200,107.600 193.560,107.600 194.000 C 107.600 194.440,107.780 194.800,108.000 194.800 C 108.220 194.800,108.400 195.160,108.400 195.600 C 108.400 196.040,108.580 196.400,108.800 196.400 C 109.020 196.400,109.200 196.745,109.200 197.167 C 109.200 197.588,109.335 197.993,109.500 198.067 C 109.876 198.234,111.175 200.364,111.471 201.300 C 111.593 201.685,111.852 202.000,112.047 202.000 C 112.241 202.000,112.400 202.360,112.400 202.800 C 112.400 203.240,112.580 203.600,112.800 203.600 C 113.020 203.600,113.200 203.960,113.200 204.400 C 113.200 204.840,113.380 205.200,113.600 205.200 C 113.820 205.200,114.000 205.436,114.000 205.725 C 114.000 206.013,114.360 206.636,114.800 207.108 C 115.240 207.580,115.600 208.244,115.600 208.583 C 115.600 208.922,115.780 209.200,116.000 209.200 C 116.220 209.200,116.400 209.478,116.400 209.817 C 116.400 210.156,116.760 210.820,117.200 211.292 C 117.640 211.764,118.000 212.387,118.000 212.675 C 118.000 212.964,118.180 213.200,118.400 213.200 C 118.620 213.200,118.800 213.560,118.800 214.000 C 118.800 214.440,118.980 214.800,119.200 214.800 C 119.420 214.800,119.600 215.036,119.600 215.325 C 119.600 215.613,119.960 216.236,120.400 216.708 C 120.840 217.180,121.200 217.844,121.200 218.183 C 121.200 218.522,121.380 218.800,121.600 218.800 C 121.820 218.800,122.000 219.036,122.000 219.325 C 122.000 219.613,122.360 220.236,122.800 220.708 C 123.240 221.180,123.600 221.804,123.600 222.095 C 123.600 222.386,123.960 222.883,124.400 223.200 C 124.840 223.517,125.200 224.097,125.200 224.488 C 125.200 224.880,125.380 225.200,125.600 225.200 C 125.820 225.200,126.000 225.436,126.000 225.725 C 126.000 226.013,126.360 226.636,126.800 227.108 C 127.240 227.580,127.600 228.204,127.600 228.495 C 127.600 228.786,127.960 229.283,128.400 229.600 C 128.840 229.917,129.200 230.414,129.200 230.705 C 129.200 230.996,129.560 231.620,130.000 232.092 C 130.440 232.564,130.800 233.187,130.800 233.475 C 130.800 233.764,130.980 234.000,131.200 234.000 C 131.420 234.000,131.600 234.236,131.600 234.525 C 131.600 234.813,131.915 235.398,132.300 235.825 C 132.685 236.251,133.255 237.095,133.568 237.700 C 133.880 238.305,134.285 238.800,134.468 238.800 C 134.650 238.800,134.800 239.036,134.800 239.325 C 134.800 239.613,135.115 240.198,135.500 240.625 C 135.885 241.051,136.455 241.895,136.768 242.500 C 137.080 243.105,137.485 243.600,137.668 243.600 C 137.850 243.600,138.000 243.836,138.000 244.125 C 138.000 244.413,138.360 245.036,138.800 245.508 C 139.240 245.980,139.600 246.509,139.601 246.683 C 139.601 246.857,140.141 247.630,140.800 248.400 C 141.459 249.170,141.999 249.985,141.999 250.212 C 142.000 250.438,142.360 250.883,142.800 251.200 C 143.240 251.517,143.600 252.057,143.600 252.400 C 143.600 252.743,143.960 253.283,144.400 253.600 C 144.840 253.917,145.200 254.457,145.200 254.800 C 145.200 255.143,145.560 255.683,146.000 256.000 C 146.440 256.317,146.800 256.762,146.801 256.988 C 146.801 257.215,147.341 258.030,148.000 258.800 C 148.659 259.570,149.199 260.385,149.199 260.612 C 149.200 260.838,149.560 261.283,150.000 261.600 C 150.440 261.917,150.800 262.457,150.800 262.800 C 150.800 263.143,151.160 263.683,151.600 264.000 C 152.040 264.317,152.400 264.809,152.400 265.092 C 152.400 265.375,152.940 266.172,153.600 266.863 C 154.260 267.554,154.800 268.322,154.800 268.571 C 154.800 268.820,155.160 269.283,155.600 269.600 C 156.040 269.917,156.400 270.380,156.400 270.629 C 156.400 270.878,156.940 271.646,157.600 272.337 C 158.260 273.028,158.800 273.776,158.800 274.000 C 158.800 274.224,159.340 274.972,160.000 275.663 C 160.660 276.354,161.200 277.122,161.200 277.371 C 161.200 277.620,161.560 278.083,162.000 278.400 C 162.440 278.717,162.800 279.180,162.800 279.429 C 162.800 279.678,163.340 280.446,164.000 281.137 C 164.660 281.828,165.200 282.537,165.200 282.712 C 165.200 282.888,165.920 283.828,166.800 284.800 C 167.680 285.772,168.400 286.728,168.400 286.924 C 168.400 287.119,168.940 287.783,169.600 288.400 C 170.260 289.017,170.800 289.737,170.800 290.000 C 170.800 290.263,171.340 290.983,172.000 291.600 C 172.660 292.217,173.200 292.897,173.200 293.112 C 173.200 293.327,173.920 294.245,174.800 295.152 C 175.680 296.059,176.400 296.959,176.400 297.152 C 176.400 297.345,177.120 298.245,178.000 299.152 C 178.880 300.059,179.600 300.959,179.600 301.152 C 179.600 301.345,180.320 302.245,181.200 303.152 C 182.080 304.059,182.800 304.959,182.800 305.152 C 182.800 305.345,183.520 306.245,184.400 307.152 C 185.280 308.059,186.000 308.959,186.000 309.152 C 186.000 309.345,186.720 310.245,187.600 311.152 C 188.480 312.059,189.200 312.973,189.200 313.183 C 189.200 313.394,190.738 315.103,192.617 316.983 L 196.034 320.400 199.417 320.400 C 201.406 320.400,202.800 320.235,202.800 320.000 C 202.800 319.780,203.074 319.600,203.409 319.600 C 204.040 319.600,208.400 315.476,208.400 314.879 C 208.400 314.694,209.300 313.578,210.400 312.400 C 211.500 311.222,212.400 310.111,212.400 309.930 C 212.400 309.749,213.120 308.859,214.000 307.952 C 214.880 307.045,215.600 306.145,215.600 305.952 C 215.600 305.759,216.320 304.859,217.200 303.952 C 218.080 303.045,218.800 302.145,218.800 301.952 C 218.800 301.759,219.520 300.859,220.400 299.952 C 221.280 299.045,222.000 298.127,222.000 297.912 C 222.000 297.697,222.540 297.017,223.200 296.400 C 223.860 295.783,224.400 295.063,224.400 294.800 C 224.400 294.537,224.940 293.817,225.600 293.200 C 226.260 292.583,226.800 291.919,226.800 291.724 C 226.800 291.528,227.520 290.572,228.400 289.600 C 229.280 288.628,230.000 287.688,230.000 287.512 C 230.000 287.337,230.540 286.628,231.200 285.937 C 231.860 285.246,232.400 284.526,232.400 284.337 C 232.400 284.148,232.940 283.428,233.600 282.737 C 234.260 282.046,234.800 281.326,234.800 281.137 C 234.800 280.948,235.340 280.228,236.000 279.537 C 236.660 278.846,237.200 278.078,237.200 277.829 C 237.200 277.580,237.560 277.117,238.000 276.800 C 238.440 276.483,238.800 276.020,238.800 275.771 C 238.800 275.522,239.340 274.754,240.000 274.063 C 240.660 273.372,241.200 272.624,241.200 272.400 C 241.200 272.176,241.740 271.428,242.400 270.737 C 243.060 270.046,243.600 269.278,243.600 269.029 C 243.600 268.780,243.960 268.317,244.400 268.000 C 244.840 267.683,245.200 267.191,245.200 266.908 C 245.200 266.625,245.740 265.828,246.400 265.137 C 247.060 264.446,247.600 263.678,247.600 263.429 C 247.600 263.180,247.960 262.717,248.400 262.400 C 248.840 262.083,249.200 261.543,249.200 261.200 C 249.200 260.857,249.560 260.317,250.000 260.000 C 250.440 259.683,250.800 259.238,250.801 259.012 C 250.801 258.785,251.341 257.970,252.000 257.200 C 252.659 256.430,253.199 255.575,253.199 255.300 C 253.200 255.025,253.350 254.800,253.532 254.800 C 253.715 254.800,254.119 254.305,254.430 253.700 C 254.740 253.095,255.311 252.309,255.697 251.953 C 256.084 251.597,256.400 251.052,256.400 250.741 C 256.400 250.431,256.760 249.917,257.200 249.600 C 257.640 249.283,258.000 248.743,258.000 248.400 C 258.000 248.057,258.360 247.517,258.800 247.200 C 259.240 246.883,259.600 246.343,259.600 246.000 C 259.600 245.657,259.960 245.117,260.400 244.800 C 260.840 244.483,261.200 243.943,261.200 243.600 C 261.200 243.257,261.560 242.717,262.000 242.400 C 262.440 242.083,262.800 241.543,262.800 241.200 C 262.800 240.857,263.160 240.317,263.600 240.000 C 264.040 239.683,264.400 239.103,264.400 238.712 C 264.400 238.320,264.550 238.000,264.732 238.000 C 264.915 238.000,265.320 237.505,265.632 236.900 C 265.945 236.295,266.515 235.451,266.900 235.025 C 267.285 234.598,267.600 234.013,267.600 233.725 C 267.600 233.436,267.780 233.200,268.000 233.200 C 268.220 233.200,268.400 232.964,268.400 232.675 C 268.400 232.387,268.715 231.802,269.100 231.375 C 269.485 230.949,270.055 230.105,270.368 229.500 C 270.680 228.895,271.085 228.400,271.268 228.400 C 271.450 228.400,271.600 228.080,271.600 227.688 C 271.600 227.297,271.960 226.717,272.400 226.400 C 272.840 226.083,273.200 225.543,273.200 225.200 C 273.200 224.857,273.560 224.317,274.000 224.000 C 274.440 223.683,274.800 223.186,274.800 222.895 C 274.800 222.604,275.160 221.980,275.600 221.508 C 276.040 221.036,276.400 220.413,276.400 220.125 C 276.400 219.836,276.580 219.600,276.800 219.600 C 277.020 219.600,277.200 219.364,277.200 219.075 C 277.200 218.787,277.560 218.164,278.000 217.692 C 278.440 217.220,278.800 216.596,278.800 216.305 C 278.800 216.014,279.160 215.517,279.600 215.200 C 280.040 214.883,280.400 214.303,280.400 213.912 C 280.400 213.520,280.580 213.200,280.800 213.200 C 281.020 213.200,281.200 212.964,281.200 212.675 C 281.200 212.387,281.560 211.764,282.000 211.292 C 282.440 210.820,282.800 210.238,282.800 210.000 C 282.800 209.762,283.160 209.180,283.600 208.708 C 284.040 208.236,284.400 207.613,284.400 207.325 C 284.400 207.036,284.580 206.800,284.800 206.800 C 285.020 206.800,285.200 206.440,285.200 206.000 C 285.200 205.560,285.380 205.200,285.600 205.200 C 285.820 205.200,286.000 204.964,286.000 204.675 C 286.000 204.387,286.360 203.764,286.800 203.292 C 287.240 202.820,287.600 202.156,287.600 201.817 C 287.600 201.478,287.780 201.200,288.000 201.200 C 288.220 201.200,288.400 200.922,288.400 200.583 C 288.400 200.244,288.760 199.580,289.200 199.108 C 289.640 198.636,290.000 198.013,290.000 197.725 C 290.000 197.436,290.180 197.200,290.400 197.200 C 290.620 197.200,290.800 196.840,290.800 196.400 C 290.800 195.960,290.980 195.600,291.200 195.600 C 291.420 195.600,291.600 195.240,291.600 194.800 C 291.600 194.360,291.780 194.000,292.000 194.000 C 292.220 194.000,292.400 193.655,292.400 193.233 C 292.400 192.812,292.535 192.407,292.700 192.333 C 293.135 192.140,294.097 190.394,296.629 185.200 C 297.862 182.670,299.035 180.287,299.236 179.905 C 299.436 179.523,299.600 178.938,299.600 178.605 C 299.600 178.272,299.780 178.000,300.000 178.000 C 300.220 178.000,300.400 177.640,300.400 177.200 C 300.400 176.760,300.580 176.400,300.800 176.400 C 301.020 176.400,301.200 176.040,301.200 175.600 C 301.200 175.160,301.380 174.800,301.600 174.800 C 301.820 174.800,302.000 174.361,302.000 173.824 C 302.000 173.287,302.180 172.736,302.400 172.600 C 302.620 172.464,302.800 172.003,302.800 171.576 C 302.800 171.149,302.980 170.800,303.200 170.800 C 303.420 170.800,303.600 170.451,303.600 170.024 C 303.600 169.597,303.780 169.136,304.000 169.000 C 304.220 168.864,304.400 168.313,304.400 167.776 C 304.400 167.239,304.580 166.800,304.800 166.800 C 305.020 166.800,305.200 166.260,305.200 165.600 C 305.200 164.940,305.380 164.400,305.600 164.400 C 305.820 164.400,306.000 164.051,306.000 163.624 C 306.000 163.197,306.180 162.736,306.400 162.600 C 306.620 162.464,306.800 161.924,306.800 161.400 C 306.800 160.876,306.980 160.336,307.200 160.200 C 307.420 160.064,307.600 159.524,307.600 159.000 C 307.600 158.476,307.780 157.936,308.000 157.800 C 308.220 157.664,308.400 157.034,308.400 156.400 C 308.400 155.766,308.580 155.136,308.800 155.000 C 309.020 154.864,309.200 154.223,309.200 153.576 C 309.200 152.929,309.380 152.400,309.600 152.400 C 309.820 152.400,310.000 151.680,310.000 150.800 C 310.000 149.920,310.180 149.200,310.400 149.200 C 310.620 149.200,310.800 148.480,310.800 147.600 C 310.800 146.720,310.980 146.000,311.200 146.000 C 311.420 146.000,311.600 145.100,311.600 144.000 C 311.600 142.900,311.780 142.000,312.000 142.000 C 312.220 142.000,312.400 141.100,312.400 140.000 C 312.400 138.900,312.580 138.000,312.800 138.000 C 313.028 138.000,313.200 136.808,313.200 135.224 C 313.200 133.697,313.380 132.336,313.600 132.200 C 313.854 132.043,314.000 126.870,314.000 118.000 C 314.000 109.130,313.854 103.957,313.600 103.800 C 313.380 103.664,313.200 102.303,313.200 100.776 C 313.200 99.192,313.028 98.000,312.800 98.000 C 312.580 98.000,312.400 97.021,312.400 95.824 C 312.400 94.627,312.220 93.536,312.000 93.400 C 311.780 93.264,311.600 92.443,311.600 91.576 C 311.600 90.709,311.420 90.000,311.200 90.000 C 310.980 90.000,310.800 89.280,310.800 88.400 C 310.800 87.520,310.620 86.800,310.400 86.800 C 310.180 86.800,310.000 86.080,310.000 85.200 C 310.000 84.320,309.820 83.600,309.600 83.600 C 309.380 83.600,309.200 83.060,309.200 82.400 C 309.200 81.740,309.020 81.200,308.800 81.200 C 308.580 81.200,308.400 80.660,308.400 80.000 C 308.400 79.340,308.220 78.800,308.000 78.800 C 307.780 78.800,307.600 78.260,307.600 77.600 C 307.600 76.940,307.420 76.400,307.200 76.400 C 306.980 76.400,306.800 75.860,306.800 75.200 C 306.800 74.540,306.620 74.000,306.400 74.000 C 306.180 74.000,306.000 73.640,306.000 73.200 C 306.000 72.760,305.820 72.400,305.600 72.400 C 305.380 72.400,305.200 71.860,305.200 71.200 C 305.200 70.540,305.020 70.000,304.800 70.000 C 304.580 70.000,304.400 69.640,304.400 69.200 C 304.400 68.760,304.220 68.400,304.000 68.400 C 303.780 68.400,303.600 68.040,303.600 67.600 C 303.600 67.160,303.420 66.800,303.200 66.800 C 302.980 66.800,302.800 66.440,302.800 66.000 C 302.800 65.560,302.620 65.200,302.400 65.200 C 302.180 65.200,302.000 64.947,302.000 64.638 C 302.000 63.972,300.332 60.659,299.900 60.467 C 299.735 60.393,299.600 59.988,299.600 59.567 C 299.600 59.145,299.420 58.800,299.200 58.800 C 298.980 58.800,298.800 58.440,298.800 58.000 C 298.800 57.560,298.620 57.200,298.400 57.200 C 298.180 57.200,298.000 56.964,298.000 56.675 C 298.000 56.387,297.640 55.764,297.200 55.292 C 296.760 54.820,296.400 54.238,296.400 54.000 C 296.400 53.762,296.040 53.180,295.600 52.708 C 295.160 52.236,294.800 51.613,294.800 51.325 C 294.800 51.036,294.620 50.800,294.400 50.800 C 294.180 50.800,294.000 50.575,293.999 50.300 C 293.999 50.025,293.459 49.170,292.800 48.400 C 292.141 47.630,291.601 46.863,291.601 46.696 C 291.600 46.529,291.060 45.828,290.400 45.137 C 289.740 44.446,289.200 43.710,289.200 43.501 C 289.200 43.292,288.660 42.617,288.000 42.000 C 287.340 41.383,286.800 40.690,286.800 40.458 C 286.800 39.906,273.412 26.475,271.600 25.209 C 270.830 24.671,269.723 23.729,269.140 23.115 C 268.556 22.502,267.880 22.000,267.636 22.000 C 267.392 22.000,266.628 21.460,265.937 20.800 C 265.246 20.140,264.478 19.600,264.229 19.600 C 263.980 19.600,263.517 19.240,263.200 18.800 C 262.883 18.360,262.343 18.000,262.000 18.000 C 261.657 18.000,261.117 17.640,260.800 17.200 C 260.483 16.760,259.986 16.400,259.695 16.400 C 259.404 16.400,258.780 16.040,258.308 15.600 C 257.836 15.160,257.213 14.800,256.925 14.800 C 256.636 14.800,256.400 14.620,256.400 14.400 C 256.400 14.180,256.040 14.000,255.600 14.000 C 255.160 14.000,254.800 13.820,254.800 13.600 C 254.800 13.380,254.440 13.200,254.000 13.200 C 253.560 13.200,253.200 13.047,253.200 12.860 C 253.200 12.673,251.985 11.934,250.500 11.218 C 249.015 10.502,247.487 9.755,247.105 9.558 C 246.723 9.361,246.138 9.200,245.805 9.200 C 245.472 9.200,245.200 9.020,245.200 8.800 C 245.200 8.580,244.840 8.400,244.400 8.400 C 243.960 8.400,243.600 8.220,243.600 8.000 C 243.600 7.780,243.251 7.600,242.824 7.600 C 242.397 7.600,241.936 7.420,241.800 7.200 C 241.664 6.980,241.113 6.800,240.576 6.800 C 240.039 6.800,239.600 6.620,239.600 6.400 C 239.600 6.180,239.060 6.000,238.400 6.000 C 237.740 6.000,237.200 5.820,237.200 5.600 C 237.200 5.380,236.761 5.200,236.224 5.200 C 235.687 5.200,235.136 5.020,235.000 4.800 C 234.864 4.580,234.223 4.400,233.576 4.400 C 232.929 4.400,232.400 4.220,232.400 4.000 C 232.400 3.780,231.860 3.600,231.200 3.600 C 230.540 3.600,230.000 3.420,230.000 3.200 C 230.000 2.980,229.280 2.800,228.400 2.800 C 227.520 2.800,226.800 2.620,226.800 2.400 C 226.800 2.180,226.080 2.000,225.200 2.000 C 224.320 2.000,223.600 1.820,223.600 1.600 C 223.600 1.380,222.646 1.200,221.480 1.200 C 220.314 1.200,219.135 0.975,218.860 0.700 C 218.367 0.207,189.227 -0.138,182.900 0.275 M211.600 12.441 C 253.165 17.427,287.409 48.445,298.419 91.082 C 302.022 105.034,302.713 122.743,300.202 136.800 C 297.170 153.780,289.379 173.315,277.311 194.200 C 267.840 210.591,246.824 242.844,235.088 259.000 C 233.810 260.760,232.075 263.190,231.234 264.400 C 225.173 273.115,200.245 305.200,199.535 305.200 C 199.237 305.200,187.231 290.359,180.767 282.000 C 151.619 244.305,122.573 198.458,110.697 171.400 C 107.388 163.860,106.594 161.936,105.507 158.828 C 102.062 148.978,100.427 141.816,98.809 129.484 C 98.185 124.725,98.303 108.173,98.998 103.000 C 101.189 86.699,104.352 76.925,111.880 63.200 C 131.023 28.299,171.604 7.643,211.600 12.441 M214.000 35.990 C 212.166 36.978,180.168 69.118,179.802 70.340 C 178.469 74.792,182.700 78.854,187.097 77.342 C 188.817 76.751,220.804 45.042,221.802 42.940 C 224.113 38.069,218.847 33.378,214.000 35.990 M208.500 64.090 C 199.551 73.047,192.800 80.111,192.800 80.519 C 192.800 80.917,196.323 84.726,200.752 89.117 C 210.772 99.050,210.640 98.774,206.920 102.000 C 205.413 103.308,189.927 118.196,178.000 129.805 C 174.590 133.124,169.190 138.350,166.000 141.420 C 162.810 144.489,157.230 149.884,153.600 153.409 C 149.970 156.934,144.480 162.242,141.400 165.205 C 127.639 178.443,126.860 179.385,126.486 183.253 C 125.820 190.145,133.879 194.878,139.839 191.097 C 141.304 190.167,147.866 183.636,157.014 174.003 C 159.206 171.694,163.166 167.554,165.813 164.803 C 168.460 162.051,172.598 157.730,175.010 155.200 C 177.421 152.670,181.557 148.350,184.200 145.600 C 186.844 142.850,192.780 136.640,197.392 131.800 C 219.583 108.512,218.894 109.200,220.015 109.200 C 220.707 109.200,223.197 111.430,229.391 117.600 C 234.029 122.220,238.103 126.000,238.445 126.000 C 239.366 126.000,270.800 94.677,270.800 93.759 C 270.801 92.763,226.206 48.642,225.043 48.488 C 224.401 48.403,220.466 52.114,208.500 64.090 M276.840 96.819 C 274.881 97.258,242.196 129.889,241.539 132.061 C 240.186 136.534,244.996 140.783,249.034 138.682 C 250.758 137.785,281.893 106.925,283.028 104.988 C 285.678 100.466,282.033 95.654,276.840 96.819 " stroke="none" fill="#fbfbfb" fill-rule="evenodd"></path><path id="path1" d="M190.000 12.856 C 121.871 19.863,81.371 90.161,106.142 158.413 C 117.025 188.398,147.603 238.285,182.754 283.400 C 187.166 289.063,198.422 303.243,199.213 304.135 C 199.938 304.952,223.569 274.216,238.221 253.400 C 242.109 247.876,257.117 225.422,260.992 219.332 C 262.088 217.609,264.125 214.420,265.519 212.244 C 296.537 163.831,305.948 131.412,298.996 96.921 C 288.292 43.811,241.313 7.578,190.000 12.856 M219.462 35.056 C 222.184 36.348,223.611 39.400,222.833 42.267 C 222.412 43.816,189.922 76.848,187.726 77.958 C 183.142 80.277,177.231 74.754,179.202 69.994 C 179.903 68.303,212.436 35.977,214.309 35.110 C 216.194 34.239,217.706 34.223,219.462 35.056 M248.896 70.304 C 263.584 84.992,271.600 93.287,271.600 93.798 C 271.600 95.043,239.667 126.800,238.416 126.800 C 237.683 126.800,235.355 124.721,229.009 118.400 C 224.371 113.780,220.303 110.000,219.968 110.000 C 219.271 110.000,214.408 114.911,196.995 133.200 C 190.187 140.350,182.360 148.540,179.602 151.400 C 176.844 154.260,168.834 162.630,161.803 170.000 C 141.471 191.313,142.088 190.706,139.304 192.077 C 130.565 196.379,122.138 186.880,127.265 178.507 C 127.700 177.796,136.009 169.517,145.728 160.109 C 155.448 150.701,166.642 139.853,170.603 136.002 C 174.565 132.151,184.679 122.365,193.078 114.256 C 201.477 106.146,208.455 99.234,208.585 98.896 C 208.748 98.470,206.230 95.671,200.410 89.810 C 191.881 81.220,191.674 80.956,192.421 79.561 C 193.478 77.586,224.213 47.627,225.196 47.613 C 225.987 47.603,230.879 52.287,248.896 70.304 M281.636 96.889 C 284.353 98.377,285.390 101.583,284.083 104.459 C 282.900 107.063,250.801 138.911,248.674 139.591 C 245.709 140.539,242.641 139.224,241.191 136.382 C 239.128 132.338,239.409 131.958,258.488 112.949 C 277.484 94.022,277.005 94.354,281.636 96.889 " stroke="none" fill="#e4ac6c" fill-rule="evenodd"></path><path id="path2" d="M196.500 12.297 C 198.205 12.372,200.995 12.372,202.700 12.297 C 204.405 12.222,203.010 12.161,199.600 12.161 C 196.190 12.161,194.795 12.222,196.500 12.297 M190.700 12.682 C 191.195 12.778,192.005 12.778,192.500 12.682 C 192.995 12.587,192.590 12.509,191.600 12.509 C 190.610 12.509,190.205 12.587,190.700 12.682 M206.700 12.682 C 207.195 12.778,208.005 12.778,208.500 12.682 C 208.995 12.587,208.590 12.509,207.600 12.509 C 206.610 12.509,206.205 12.587,206.700 12.682 M184.600 13.215 C 183.844 13.418,184.362 13.454,186.000 13.315 C 187.430 13.193,188.675 13.028,188.767 12.947 C 189.070 12.680,185.822 12.889,184.600 13.215 M210.033 12.945 C 210.125 13.025,211.460 13.189,213.000 13.309 C 214.698 13.441,215.328 13.402,214.600 13.211 C 213.384 12.891,209.727 12.678,210.033 12.945 M180.000 14.020 C 179.326 14.249,179.651 14.284,181.000 14.128 C 182.100 14.001,183.075 13.831,183.167 13.749 C 183.482 13.468,180.999 13.680,180.000 14.020 M216.033 13.749 C 216.125 13.831,217.100 14.001,218.200 14.128 C 219.549 14.284,219.874 14.249,219.200 14.020 C 218.201 13.680,215.718 13.468,216.033 13.749 M220.433 14.547 C 220.525 14.628,221.320 14.804,222.200 14.938 C 223.315 15.107,223.558 15.071,223.000 14.819 C 222.232 14.471,220.090 14.244,220.433 14.547 M224.033 15.344 C 224.125 15.423,224.740 15.608,225.400 15.756 C 226.276 15.952,226.438 15.915,226.000 15.618 C 225.460 15.253,223.632 14.998,224.033 15.344 M170.400 16.418 C 169.962 16.715,170.124 16.752,171.000 16.556 C 172.471 16.227,172.790 15.998,171.767 16.006 C 171.345 16.009,170.730 16.195,170.400 16.418 M226.833 16.144 C 226.925 16.223,227.540 16.408,228.200 16.556 C 229.076 16.752,229.238 16.715,228.800 16.418 C 228.260 16.053,226.432 15.798,226.833 16.144 M163.123 18.946 C 161.431 19.647,159.901 20.366,159.723 20.544 C 159.424 20.843,161.132 20.215,165.600 18.382 C 166.590 17.976,167.130 17.650,166.800 17.657 C 166.470 17.665,164.815 18.245,163.123 18.946 M233.600 18.382 C 238.004 20.189,239.771 20.831,239.400 20.490 C 238.910 20.040,232.756 17.586,232.200 17.620 C 231.980 17.633,232.610 17.976,233.600 18.382 M157.300 21.434 C 156.585 21.746,156.000 22.094,156.000 22.207 C 156.000 22.415,158.806 21.327,159.146 20.987 C 159.486 20.647,158.620 20.857,157.300 21.434 M240.033 20.954 C 240.440 21.329,247.600 24.787,247.600 24.608 C 247.600 24.386,240.577 20.800,240.141 20.800 C 239.990 20.800,239.942 20.869,240.033 20.954 M151.325 24.531 C 148.365 26.341,148.169 26.735,151.000 25.184 C 153.552 23.787,154.416 23.179,153.780 23.231 C 153.571 23.247,152.466 23.832,151.325 24.531 M248.611 25.339 C 250.519 26.641,251.600 27.278,251.600 27.099 C 251.600 26.845,248.504 24.800,248.120 24.800 C 247.956 24.800,248.177 25.042,248.611 25.339 M144.669 28.580 C 140.629 31.332,134.427 36.116,134.412 36.492 C 134.405 36.652,135.885 35.584,137.700 34.119 C 139.515 32.653,142.620 30.391,144.600 29.092 C 148.557 26.495,148.698 26.389,148.167 26.424 C 147.965 26.437,146.391 27.408,144.669 28.580 M253.400 28.257 C 253.620 28.479,255.690 30.027,258.000 31.698 C 260.310 33.369,263.505 35.935,265.100 37.400 C 266.695 38.866,267.987 39.915,267.970 39.732 C 267.927 39.254,261.920 34.105,258.400 31.529 C 255.263 29.233,252.716 27.566,253.400 28.257 M215.074 34.743 C 214.658 34.906,215.343 35.023,216.674 35.014 C 219.379 34.998,221.085 35.958,222.135 38.087 C 222.491 38.809,222.786 39.147,222.791 38.838 C 222.832 36.304,217.836 33.653,215.074 34.743 M197.441 51.100 C 178.073 70.316,178.428 69.907,178.912 72.459 C 179.049 73.178,179.104 73.089,179.146 72.080 C 179.240 69.791,179.977 68.963,197.091 51.900 C 206.303 42.715,213.757 35.200,213.654 35.200 C 213.551 35.200,206.256 42.355,197.441 51.100 M128.153 42.509 C 121.595 49.251,112.403 61.200,113.776 61.200 C 113.888 61.200,114.237 60.702,114.552 60.093 C 116.673 55.992,122.870 48.296,129.364 41.700 C 132.017 39.005,134.080 36.800,133.947 36.800 C 133.814 36.800,131.207 39.369,128.153 42.509 M222.667 41.158 C 222.505 42.125,221.984 43.475,221.510 44.158 L 220.649 45.400 221.526 44.636 C 222.444 43.838,223.349 41.219,223.104 40.070 C 223.026 39.701,222.829 40.191,222.667 41.158 M272.858 45.100 C 273.863 46.145,275.725 48.260,276.995 49.800 C 279.399 52.715,280.570 53.976,279.594 52.600 C 278.990 51.749,274.321 46.139,272.685 44.300 C 272.147 43.695,271.555 43.200,271.368 43.200 C 271.182 43.200,271.853 44.055,272.858 45.100 M208.521 63.201 C 193.500 78.121,192.000 79.723,192.000 80.844 C 192.000 81.117,195.780 85.147,200.400 89.800 C 205.020 94.453,208.800 98.162,208.800 98.042 C 208.800 97.922,205.110 94.119,200.600 89.590 C 195.650 84.620,192.400 81.053,192.400 80.590 C 192.400 79.463,223.836 48.087,225.174 47.879 L 226.200 47.720 225.200 47.673 C 224.393 47.636,221.167 50.639,208.521 63.201 M226.464 48.300 C 226.500 48.465,236.625 58.589,248.964 70.799 L 271.400 92.997 249.001 70.499 C 226.546 47.943,226.345 47.745,226.464 48.300 M283.100 58.110 C 286.266 62.862,286.828 63.619,285.992 62.000 C 285.224 60.514,280.874 54.093,280.464 53.839 C 280.268 53.719,281.455 55.640,283.100 58.110 M111.802 64.050 C 111.013 65.397,110.452 66.585,110.555 66.689 C 110.659 66.793,111.143 66.095,111.630 65.139 C 112.117 64.182,112.780 62.995,113.104 62.500 C 113.427 62.005,113.590 61.600,113.465 61.600 C 113.340 61.600,112.592 62.702,111.802 64.050 M287.440 65.202 C 288.039 66.303,288.593 67.140,288.671 67.063 C 288.843 66.890,286.808 63.200,286.541 63.200 C 286.436 63.200,286.840 64.101,287.440 65.202 M192.192 73.700 L 188.200 77.800 192.300 73.808 C 196.108 70.099,196.582 69.600,196.292 69.600 C 196.233 69.600,194.388 71.445,192.192 73.700 M107.800 71.861 C 107.464 72.665,107.282 73.415,107.395 73.528 C 107.508 73.641,107.600 73.635,107.600 73.516 C 107.600 73.396,107.872 72.646,108.205 71.849 C 108.538 71.052,108.721 70.400,108.611 70.400 C 108.501 70.400,108.136 71.058,107.800 71.861 M291.807 73.879 C 292.407 75.314,292.800 75.962,292.800 75.516 C 292.800 75.084,291.585 72.400,291.389 72.400 C 291.279 72.400,291.467 73.066,291.807 73.879 M179.225 74.056 C 179.211 74.416,179.515 75.055,179.900 75.475 C 180.285 75.894,180.472 76.040,180.316 75.797 C 180.160 75.555,179.856 74.917,179.641 74.378 C 179.394 73.760,179.241 73.641,179.225 74.056 M104.658 79.704 C 103.728 82.140,103.880 82.604,104.836 80.247 C 105.272 79.173,105.558 78.224,105.472 78.138 C 105.386 78.052,105.020 78.757,104.658 79.704 M103.449 83.015 C 103.312 83.373,103.215 83.966,103.234 84.333 C 103.253 84.700,103.427 84.469,103.621 83.820 C 103.998 82.558,103.865 81.933,103.449 83.015 M102.649 85.815 C 102.512 86.173,102.415 86.766,102.434 87.133 C 102.453 87.500,102.627 87.269,102.821 86.620 C 103.198 85.358,103.065 84.733,102.649 85.815 M296.868 87.600 C 296.888 88.639,297.518 90.346,297.532 89.400 C 297.538 88.960,297.389 88.240,297.200 87.800 C 296.989 87.310,296.861 87.232,296.868 87.600 M101.800 89.200 C 101.648 89.891,101.607 90.541,101.709 90.642 C 101.811 90.744,102.009 90.253,102.150 89.550 C 102.483 87.883,102.160 87.560,101.800 89.200 M297.858 91.600 C 298.175 93.325,298.402 93.651,298.394 92.367 C 298.391 91.835,298.211 91.130,297.994 90.800 C 297.718 90.378,297.677 90.615,297.858 91.600 M298.662 95.000 C 298.796 95.880,298.972 96.675,299.053 96.767 C 299.356 97.110,299.129 94.968,298.781 94.200 C 298.529 93.642,298.493 93.885,298.662 95.000 M255.190 110.601 C 243.096 122.686,239.152 126.400,238.412 126.400 C 237.684 126.400,235.374 124.317,229.097 118.000 C 224.506 113.380,220.446 109.604,220.075 109.609 C 219.192 109.621,218.508 110.228,213.999 115.000 L 210.220 119.000 214.816 114.500 C 217.344 112.025,219.674 110.000,219.994 110.000 C 220.314 110.000,224.371 113.780,229.009 118.400 C 235.332 124.698,237.685 126.800,238.411 126.800 C 239.152 126.800,243.130 123.052,255.390 110.801 C 264.195 102.002,271.310 94.803,271.200 94.803 C 271.090 94.803,263.885 101.912,255.190 110.601 M100.269 96.356 C 100.121 97.095,100.020 98.083,100.044 98.550 C 100.068 99.017,100.247 98.590,100.442 97.600 C 100.637 96.610,100.738 95.623,100.667 95.406 C 100.596 95.190,100.417 95.617,100.269 96.356 M275.400 96.620 C 272.800 97.954,240.800 130.433,240.800 131.738 C 240.800 131.968,241.319 131.356,241.953 130.378 C 243.664 127.738,274.312 97.392,276.000 96.667 C 276.770 96.336,277.220 96.052,277.000 96.035 C 276.780 96.019,276.060 96.282,275.400 96.620 M282.515 97.888 C 283.832 99.291,284.542 101.549,284.224 103.326 C 284.011 104.516,284.024 104.534,284.423 103.600 C 285.213 101.751,284.039 98.299,282.253 97.217 C 281.601 96.822,281.663 96.980,282.515 97.888 M299.472 99.000 C 299.599 100.100,299.769 101.075,299.851 101.167 C 300.132 101.482,299.920 98.999,299.580 98.000 C 299.351 97.326,299.316 97.651,299.472 99.000 M198.966 108.570 C 193.667 113.867,191.600 116.040,194.373 113.400 C 203.580 104.635,208.800 99.474,208.800 99.135 C 208.800 98.698,209.865 97.676,198.966 108.570 M99.459 101.488 C 99.321 102.319,99.230 103.720,99.256 104.600 C 99.287 105.647,99.423 105.173,99.648 103.230 C 100.011 100.096,99.883 98.919,99.459 101.488 M300.299 104.600 C 300.416 106.140,300.577 107.475,300.656 107.567 C 300.934 107.888,300.717 103.789,300.403 102.800 C 300.219 102.219,300.175 102.973,300.299 104.600 M267.400 121.472 C 247.910 141.142,247.441 141.460,242.813 138.153 L 241.400 137.142 242.754 138.345 C 246.994 142.113,247.527 141.764,266.728 122.652 C 280.365 109.079,284.990 104.290,283.914 104.860 C 283.851 104.894,276.420 112.369,267.400 121.472 M98.924 109.400 C 98.926 110.720,99.001 111.212,99.090 110.493 C 99.179 109.774,99.177 108.694,99.086 108.093 C 98.995 107.492,98.922 108.080,98.924 109.400 M301.000 118.000 C 301.000 123.390,301.117 126.810,301.260 125.600 C 301.404 124.390,301.521 120.970,301.521 118.000 C 301.521 115.030,301.404 111.610,301.260 110.400 C 301.117 109.190,301.000 112.610,301.000 118.000 M98.447 116.633 C 98.472 119.255,98.624 122.570,98.783 124.000 C 98.942 125.430,98.986 123.360,98.880 119.400 C 98.775 115.440,98.624 112.125,98.544 112.033 C 98.465 111.942,98.421 114.012,98.447 116.633 M176.567 130.338 C 170.389 136.422,167.510 139.330,170.168 136.800 C 178.416 128.950,188.042 119.509,187.918 119.390 C 187.853 119.328,182.745 124.254,176.567 130.338 M208.200 120.976 C 207.760 121.504,204.070 125.404,200.000 129.642 C 195.930 133.880,192.798 137.230,193.039 137.087 C 193.836 136.616,209.702 120.000,209.347 120.008 C 209.156 120.012,208.640 120.448,208.200 120.976 M99.320 129.600 C 99.320 130.810,99.395 131.305,99.487 130.700 C 99.578 130.095,99.578 129.105,99.487 128.500 C 99.395 127.895,99.320 128.390,99.320 129.600 M300.470 129.850 C 300.431 130.758,300.311 132.108,300.201 132.850 L 300.003 134.200 300.423 132.862 C 300.653 132.127,300.774 130.777,300.691 129.862 L 300.540 128.200 300.470 129.850 M240.501 133.800 C 240.505 134.680,240.587 134.993,240.683 134.495 C 240.779 133.998,240.775 133.278,240.675 132.895 C 240.575 132.513,240.496 132.920,240.501 133.800 M100.040 135.633 C 100.062 136.385,100.230 137.450,100.413 138.000 C 100.629 138.646,100.666 138.220,100.519 136.800 C 100.259 134.283,99.981 133.607,100.040 135.633 M299.455 136.655 C 299.313 137.686,299.274 138.608,299.369 138.702 C 299.463 138.796,299.665 138.039,299.818 137.018 C 299.971 135.998,300.010 135.076,299.904 134.971 C 299.798 134.865,299.596 135.623,299.455 136.655 M191.000 138.998 C 190.340 139.725,186.470 143.801,182.400 148.057 C 178.330 152.313,175.315 155.549,175.700 155.249 C 176.936 154.283,192.519 137.986,192.357 137.828 C 192.271 137.745,191.660 138.271,191.000 138.998 M100.828 140.233 C 100.844 140.875,101.016 141.760,101.210 142.200 C 101.447 142.734,101.486 142.402,101.327 141.200 C 101.046 139.080,100.788 138.580,100.828 140.233 M298.849 139.800 C 298.816 140.240,298.696 141.050,298.583 141.600 L 298.377 142.600 298.806 141.619 C 299.042 141.079,299.161 140.269,299.072 139.819 C 298.913 139.021,298.907 139.021,298.849 139.800 M152.366 153.714 C 146.297 159.701,143.418 162.620,145.968 160.200 C 153.853 152.716,163.948 142.799,163.667 142.814 C 163.520 142.822,158.435 147.727,152.366 153.714 M298.054 143.467 C 298.025 143.944,297.896 144.664,297.770 145.067 C 297.552 145.761,297.564 145.762,297.996 145.088 C 298.247 144.697,298.375 143.977,298.281 143.488 C 298.109 142.601,298.109 142.601,298.054 143.467 M101.628 144.033 C 101.644 144.565,101.819 145.360,102.019 145.800 C 102.271 146.358,102.307 146.115,102.138 145.000 C 101.855 143.143,101.587 142.636,101.628 144.033 M297.050 147.250 C 296.717 148.917,297.040 149.240,297.400 147.600 C 297.552 146.909,297.593 146.259,297.491 146.158 C 297.389 146.056,297.191 146.547,297.050 147.250 M102.468 147.400 C 102.462 147.840,102.611 148.560,102.800 149.000 C 103.238 150.019,103.238 148.968,102.800 147.600 C 102.543 146.796,102.477 146.757,102.468 147.400 M296.229 150.229 C 296.081 150.815,296.038 151.372,296.132 151.466 C 296.227 151.560,296.424 151.158,296.571 150.571 C 296.719 149.985,296.762 149.428,296.668 149.334 C 296.573 149.240,296.376 149.642,296.229 150.229 M103.256 150.400 C 103.256 150.730,103.411 151.360,103.600 151.800 C 103.817 152.304,103.944 152.378,103.944 152.000 C 103.944 151.670,103.789 151.040,103.600 150.600 C 103.383 150.096,103.256 150.022,103.256 150.400 M173.400 157.425 C 172.740 158.161,168.870 162.236,164.800 166.479 C 160.730 170.723,157.715 173.949,158.100 173.649 C 159.324 172.693,174.920 156.387,174.757 156.234 C 174.671 156.153,174.060 156.689,173.400 157.425 M293.477 158.677 C 293.100 159.693,292.858 160.591,292.938 160.672 C 293.019 160.752,293.400 159.993,293.785 158.985 C 294.170 157.976,294.412 157.079,294.323 156.990 C 294.235 156.901,293.854 157.660,293.477 158.677 M105.645 158.000 C 105.653 158.330,106.006 159.320,106.429 160.200 C 106.852 161.080,107.086 161.362,106.949 160.826 C 106.573 159.361,105.629 157.314,105.645 158.000 M108.000 164.084 C 108.000 164.516,109.215 167.200,109.411 167.200 C 109.521 167.200,109.333 166.534,108.993 165.721 C 108.393 164.286,108.000 163.638,108.000 164.084 M133.550 171.900 C 127.908 177.600,126.400 179.344,126.400 180.167 C 126.400 180.381,126.914 179.756,127.543 178.778 C 128.171 177.800,131.221 174.525,134.320 171.500 C 137.419 168.475,139.828 166.000,139.672 166.000 C 139.517 166.000,136.762 168.655,133.550 171.900 M109.600 167.684 C 109.600 168.116,110.815 170.800,111.011 170.800 C 111.121 170.800,110.933 170.134,110.593 169.321 C 109.993 167.886,109.600 167.238,109.600 167.684 M288.815 170.298 C 287.759 172.558,287.195 174.000,287.365 174.000 C 287.614 174.000,289.642 169.509,289.471 169.337 C 289.393 169.260,289.098 169.692,288.815 170.298 M111.200 171.284 C 111.200 171.716,112.415 174.400,112.611 174.400 C 112.721 174.400,112.533 173.734,112.193 172.921 C 111.593 171.486,111.200 170.838,111.200 171.284 M155.494 176.134 C 152.293 179.673,141.350 190.707,140.400 191.354 C 139.585 191.909,139.647 191.902,140.733 191.317 C 142.023 190.623,157.460 174.925,157.152 174.620 C 157.069 174.537,156.322 175.218,155.494 176.134 M284.686 179.017 C 283.431 181.538,282.492 183.600,282.599 183.600 C 282.864 183.600,287.285 174.752,287.108 174.575 C 287.031 174.497,285.940 176.496,284.686 179.017 M113.600 176.539 C 113.600 176.975,118.785 187.200,119.006 187.200 C 119.185 187.200,114.132 176.840,113.755 176.433 C 113.670 176.342,113.600 176.389,113.600 176.539 M125.823 182.219 C 125.213 185.472,127.075 190.053,129.600 191.510 C 130.485 192.021,130.473 191.987,129.495 191.207 C 127.328 189.480,126.222 186.947,126.222 183.713 C 126.222 180.387,126.189 180.265,125.823 182.219 M280.240 187.598 C 279.640 188.699,279.236 189.600,279.341 189.600 C 279.608 189.600,281.643 185.910,281.471 185.737 C 281.393 185.660,280.839 186.497,280.240 187.598 M120.006 189.250 C 119.997 189.605,122.033 193.200,122.242 193.200 C 122.338 193.200,122.060 192.525,121.624 191.700 C 120.678 189.911,120.015 188.906,120.006 189.250 M278.200 191.200 C 277.859 191.860,277.669 192.400,277.779 192.400 C 277.889 192.400,278.259 191.860,278.600 191.200 C 278.941 190.540,279.131 190.000,279.021 190.000 C 278.911 190.000,278.541 190.540,278.200 191.200 M134.100 193.087 C 134.705 193.178,135.695 193.178,136.300 193.087 C 136.905 192.995,136.410 192.920,135.200 192.920 C 133.990 192.920,133.495 192.995,134.100 193.087 M276.653 194.100 L 275.933 195.400 276.758 194.400 C 277.489 193.513,277.814 192.800,277.486 192.800 C 277.424 192.800,277.049 193.385,276.653 194.100 M122.406 193.650 C 122.397 194.005,124.433 197.600,124.642 197.600 C 124.738 197.600,124.460 196.925,124.024 196.100 C 123.078 194.311,122.415 193.306,122.406 193.650 M275.152 196.500 C 274.890 196.995,274.415 197.850,274.096 198.400 C 273.539 199.359,273.543 199.367,274.188 198.600 C 274.986 197.652,276.105 195.600,275.824 195.600 C 275.716 195.600,275.414 196.005,275.152 196.500 M125.400 199.200 C 125.741 199.860,126.111 200.400,126.221 200.400 C 126.331 200.400,126.141 199.860,125.800 199.200 C 125.459 198.540,125.089 198.000,124.979 198.000 C 124.869 198.000,125.059 198.540,125.400 199.200 M272.770 200.466 C 272.498 200.980,272.013 201.805,271.692 202.300 C 271.371 202.795,271.195 203.200,271.301 203.200 C 271.636 203.200,273.669 199.936,273.462 199.729 C 273.354 199.620,273.042 199.952,272.770 200.466 M126.415 201.000 C 126.417 201.220,126.786 201.850,127.236 202.400 C 127.779 203.064,127.915 203.131,127.640 202.600 C 126.966 201.295,126.412 200.572,126.415 201.000 M129.223 205.800 C 131.285 209.485,134.417 214.554,134.907 215.000 C 135.149 215.220,135.044 214.912,134.675 214.316 C 134.305 213.720,132.805 211.200,131.342 208.716 C 128.492 203.880,126.997 201.823,129.223 205.800 M270.092 204.935 C 269.659 205.669,268.989 206.794,268.605 207.435 L 267.905 208.600 268.733 207.600 C 269.679 206.457,271.344 203.600,271.065 203.600 C 270.963 203.600,270.525 204.201,270.092 204.935 M265.737 211.900 C 265.086 212.945,264.228 214.295,263.831 214.900 C 263.433 215.505,263.193 216.000,263.297 216.000 C 263.505 216.000,265.984 212.338,266.749 210.900 C 267.596 209.309,266.957 209.940,265.737 211.900 M135.611 216.400 C 136.328 217.781,138.876 221.600,139.080 221.600 C 139.273 221.600,139.164 221.412,137.112 218.225 C 135.427 215.607,134.810 214.857,135.611 216.400 M257.362 224.867 C 252.739 231.947,252.706 232.000,252.937 232.000 C 253.034 232.000,254.903 229.255,257.090 225.900 C 261.564 219.037,261.710 218.800,261.486 218.800 C 261.397 218.800,259.542 221.530,257.362 224.867 M140.007 223.400 C 141.590 226.080,154.384 245.143,154.751 245.370 C 155.082 245.574,139.755 222.408,139.289 222.000 C 139.164 221.890,139.487 222.520,140.007 223.400 M243.952 245.100 C 242.812 246.805,241.235 249.092,240.446 250.182 C 239.657 251.272,239.220 252.035,239.474 251.878 C 240.009 251.547,246.540 242.000,246.231 242.000 C 246.117 242.000,245.092 243.395,243.952 245.100 M159.190 251.906 C 160.568 253.944,161.874 255.722,162.093 255.857 C 162.559 256.145,158.148 249.682,157.276 248.800 C 156.950 248.470,157.811 249.868,159.190 251.906 M237.555 254.300 C 236.849 255.345,235.628 257.092,234.842 258.182 C 234.055 259.272,233.613 260.039,233.858 259.888 C 234.381 259.564,239.340 252.400,239.041 252.400 C 238.930 252.400,238.261 253.255,237.555 254.300 M163.944 258.675 C 164.853 260.037,165.819 261.288,166.092 261.457 C 166.365 261.626,165.886 260.782,165.027 259.582 C 162.753 256.404,162.017 255.787,163.944 258.675 M230.572 264.100 C 229.091 266.135,227.682 268.060,227.440 268.377 C 227.106 268.815,227.120 268.881,227.502 268.652 C 227.778 268.486,228.721 267.327,229.597 266.075 C 230.474 264.824,231.743 263.035,232.417 262.100 C 233.092 261.165,233.558 260.400,233.454 260.400 C 233.349 260.400,232.053 262.065,230.572 264.100 M168.012 264.322 C 168.966 265.708,169.936 266.960,170.167 267.103 C 170.641 267.396,167.792 263.329,166.872 262.400 C 166.545 262.070,167.058 262.935,168.012 264.322 M171.191 268.788 C 171.657 269.441,172.242 270.102,172.491 270.256 C 172.741 270.411,172.441 269.876,171.825 269.068 C 170.488 267.315,169.984 267.092,171.191 268.788 M225.775 270.668 C 225.159 271.476,224.859 272.011,225.109 271.856 C 225.621 271.540,227.353 269.200,227.075 269.200 C 226.976 269.200,226.391 269.861,225.775 270.668 M173.591 271.988 C 174.057 272.641,174.642 273.302,174.891 273.456 C 175.141 273.611,174.841 273.076,174.225 272.268 C 172.888 270.515,172.384 270.292,173.591 271.988 M223.375 273.868 C 222.759 274.676,222.459 275.211,222.709 275.056 C 223.221 274.740,224.953 272.400,224.675 272.400 C 224.576 272.400,223.991 273.061,223.375 273.868 M175.991 275.188 C 176.457 275.841,177.042 276.502,177.291 276.656 C 177.541 276.811,177.241 276.276,176.625 275.468 C 175.288 273.715,174.784 273.492,175.991 275.188 M220.975 277.068 C 220.359 277.876,220.059 278.411,220.309 278.256 C 220.821 277.940,222.553 275.600,222.275 275.600 C 222.176 275.600,221.591 276.261,220.975 277.068 M178.208 278.076 C 178.644 278.646,179.810 280.202,180.800 281.534 C 181.790 282.865,182.742 283.965,182.916 283.977 C 183.269 284.003,178.451 277.678,177.819 277.288 C 177.597 277.151,177.772 277.506,178.208 278.076 M218.575 280.268 C 217.959 281.076,217.659 281.611,217.909 281.456 C 218.421 281.140,220.153 278.800,219.875 278.800 C 219.776 278.800,219.191 279.461,218.575 280.268 M215.949 283.700 C 215.224 284.635,214.018 286.165,213.267 287.100 C 212.517 288.035,212.060 288.795,212.252 288.788 C 212.443 288.782,213.410 287.683,214.400 286.346 C 215.390 285.010,216.530 283.485,216.933 282.958 C 217.337 282.431,217.577 282.000,217.467 282.000 C 217.357 282.000,216.674 282.765,215.949 283.700 M183.488 284.900 C 186.323 288.568,191.733 295.200,191.891 295.200 C 192.004 295.200,191.475 294.435,190.715 293.500 C 189.956 292.565,188.025 290.135,186.424 288.100 C 184.823 286.065,183.421 284.400,183.308 284.400 C 183.195 284.400,183.276 284.625,183.488 284.900 M205.626 296.846 C 202.274 301.052,199.397 304.337,199.230 304.146 C 199.064 303.956,197.451 301.955,195.644 299.700 C 193.838 297.445,192.277 295.600,192.174 295.600 C 192.071 295.600,193.644 297.670,195.669 300.200 C 197.694 302.730,199.452 304.791,199.575 304.781 C 199.946 304.750,212.239 289.200,211.893 289.200 C 211.797 289.200,208.977 292.641,205.626 296.846 " stroke="none" fill="#eec59e" fill-rule="evenodd"></path><path id="path3" d="M198.300 11.889 C 199.015 11.978,200.185 11.978,200.900 11.889 C 201.615 11.801,201.030 11.728,199.600 11.728 C 198.170 11.728,197.585 11.801,198.300 11.889 M189.905 12.283 C 190.402 12.379,191.122 12.375,191.505 12.275 C 191.887 12.175,191.480 12.096,190.600 12.101 C 189.720 12.105,189.407 12.187,189.905 12.283 M208.800 12.420 C 209.790 12.597,211.140 12.732,211.800 12.720 C 212.685 12.705,212.528 12.616,211.200 12.380 C 210.210 12.203,208.860 12.068,208.200 12.080 C 207.315 12.095,207.472 12.184,208.800 12.420 M182.400 13.200 C 181.608 13.454,181.567 13.520,182.200 13.520 C 182.640 13.520,183.450 13.376,184.000 13.200 C 184.792 12.946,184.833 12.880,184.200 12.880 C 183.760 12.880,182.950 13.024,182.400 13.200 M215.200 13.200 C 215.750 13.376,216.650 13.517,217.200 13.513 C 218.098 13.506,218.078 13.474,217.000 13.200 C 215.308 12.769,213.856 12.769,215.200 13.200 M178.200 14.000 C 177.181 14.438,178.232 14.438,179.600 14.000 C 180.404 13.743,180.443 13.677,179.800 13.668 C 179.360 13.662,178.640 13.811,178.200 14.000 M219.800 14.000 C 220.240 14.189,220.870 14.344,221.200 14.344 C 221.578 14.344,221.504 14.217,221.000 14.000 C 220.560 13.811,219.930 13.656,219.600 13.656 C 219.222 13.656,219.296 13.783,219.800 14.000 M223.400 14.800 C 223.840 14.989,224.470 15.144,224.800 15.144 C 225.178 15.144,225.104 15.017,224.600 14.800 C 224.160 14.611,223.530 14.456,223.200 14.456 C 222.822 14.456,222.896 14.583,223.400 14.800 M171.800 15.600 C 171.296 15.817,171.222 15.944,171.600 15.944 C 171.930 15.944,172.560 15.789,173.000 15.600 C 173.504 15.383,173.578 15.256,173.200 15.256 C 172.870 15.256,172.240 15.411,171.800 15.600 M246.000 23.379 C 246.000 23.489,246.540 23.859,247.200 24.200 C 247.860 24.541,248.400 24.731,248.400 24.621 C 248.400 24.511,247.860 24.141,247.200 23.800 C 246.540 23.459,246.000 23.269,246.000 23.379 M150.300 24.629 C 148.805 25.440,148.896 25.778,150.400 25.000 C 151.060 24.659,151.600 24.294,151.600 24.190 C 151.600 23.932,151.557 23.947,150.300 24.629 M144.567 28.236 C 142.385 29.686,140.330 31.146,140.000 31.480 C 139.432 32.054,147.776 26.670,148.580 25.944 C 149.590 25.030,148.173 25.840,144.567 28.236 M257.744 30.709 C 258.060 31.221,260.400 32.953,260.400 32.675 C 260.400 32.576,259.739 31.991,258.932 31.375 C 258.124 30.759,257.589 30.459,257.744 30.709 M260.833 33.319 C 260.925 33.385,261.990 34.212,263.200 35.157 L 265.400 36.875 263.411 35.037 C 262.317 34.027,261.252 33.200,261.044 33.200 C 260.837 33.200,260.742 33.254,260.833 33.319 M133.374 36.907 L 131.800 38.599 133.396 37.199 C 134.273 36.430,135.068 35.755,135.162 35.700 C 135.256 35.645,135.247 35.513,135.141 35.407 C 135.035 35.301,134.240 35.976,133.374 36.907 M213.600 35.800 C 213.050 36.114,212.780 36.372,213.000 36.372 C 213.220 36.372,213.850 36.114,214.400 35.800 C 214.950 35.486,215.220 35.228,215.000 35.228 C 214.780 35.228,214.150 35.486,213.600 35.800 M221.437 37.800 C 221.797 38.350,222.157 38.800,222.237 38.800 C 222.317 38.800,222.178 38.350,221.927 37.800 C 221.677 37.250,221.316 36.800,221.127 36.800 C 220.937 36.800,221.076 37.250,221.437 37.800 M195.616 53.384 C 186.936 62.066,179.917 69.221,180.018 69.284 C 180.118 69.348,187.307 62.245,195.994 53.500 C 204.681 44.755,211.700 37.600,211.592 37.600 C 211.485 37.600,204.295 44.703,195.616 53.384 M266.400 37.631 C 266.400 37.749,268.110 39.556,270.200 41.646 C 272.290 43.736,274.000 45.342,274.000 45.215 C 274.000 45.088,272.290 43.281,270.200 41.200 C 268.110 39.119,266.400 37.513,266.400 37.631 M127.033 42.897 C 124.705 45.370,122.800 47.526,122.800 47.688 C 122.800 47.850,123.555 47.131,124.479 46.091 C 125.402 45.051,127.422 42.895,128.969 41.300 C 130.515 39.705,131.664 38.400,131.523 38.400 C 131.381 38.400,129.361 40.423,127.033 42.897 M222.032 42.580 C 222.013 43.048,215.326 50.083,205.304 60.180 L 188.609 77.000 204.730 61.000 C 221.224 44.630,222.610 43.152,222.263 42.294 C 222.153 42.022,222.049 42.151,222.032 42.580 M274.400 46.125 C 274.400 46.194,274.985 46.779,275.700 47.425 L 277.000 48.600 275.825 47.300 C 274.730 46.088,274.400 45.816,274.400 46.125 M218.395 53.900 L 212.600 59.800 218.405 54.100 C 221.953 50.616,224.520 48.400,225.007 48.400 C 225.522 48.400,230.903 53.500,240.200 62.800 C 248.118 70.720,254.735 77.200,254.905 77.200 C 255.074 77.200,248.636 70.630,240.597 62.600 C 230.082 52.097,225.730 48.000,225.086 48.000 C 224.460 48.000,222.440 49.781,218.395 53.900 M120.200 50.800 C 119.184 52.120,118.443 53.200,118.553 53.200 C 118.663 53.200,119.584 52.120,120.600 50.800 C 121.616 49.480,122.357 48.400,122.247 48.400 C 122.137 48.400,121.216 49.480,120.200 50.800 M279.375 52.132 C 279.991 52.939,280.576 53.600,280.675 53.600 C 280.953 53.600,279.221 51.260,278.709 50.944 C 278.459 50.789,278.759 51.324,279.375 52.132 M282.859 57.100 C 285.213 60.613,286.196 61.790,284.780 59.400 C 283.602 57.412,281.184 54.000,280.953 54.000 C 280.859 54.000,281.716 55.395,282.859 57.100 M115.685 57.100 C 113.802 59.901,113.505 60.400,113.718 60.400 C 113.808 60.400,114.720 59.140,115.745 57.600 C 116.769 56.060,117.522 54.800,117.418 54.800 C 117.315 54.800,116.534 55.835,115.685 57.100 M287.000 63.600 C 287.341 64.260,287.711 64.800,287.821 64.800 C 287.931 64.800,287.741 64.260,287.400 63.600 C 287.059 62.940,286.689 62.400,286.579 62.400 C 286.469 62.400,286.659 62.940,287.000 63.600 M199.996 72.300 L 192.600 79.800 200.100 72.404 C 204.225 68.336,207.600 64.961,207.600 64.904 C 207.600 64.619,206.868 65.332,199.996 72.300 M289.400 68.000 C 289.741 68.660,290.111 69.200,290.221 69.200 C 290.331 69.200,290.141 68.660,289.800 68.000 C 289.459 67.340,289.089 66.800,288.979 66.800 C 288.869 66.800,289.059 67.340,289.400 68.000 M179.467 70.267 C 179.115 70.618,179.175 72.792,179.564 73.787 C 179.759 74.287,179.859 73.740,179.836 72.290 C 179.816 71.033,179.785 70.004,179.767 70.002 C 179.748 70.001,179.613 70.120,179.467 70.267 M193.121 81.828 C 193.632 82.755,202.400 91.512,202.400 91.096 C 202.400 90.936,200.216 88.612,197.548 85.931 C 194.879 83.250,192.887 81.404,193.121 81.828 M101.829 87.429 C 101.681 88.015,101.638 88.572,101.732 88.666 C 101.827 88.760,102.024 88.358,102.171 87.771 C 102.319 87.185,102.362 86.628,102.268 86.534 C 102.173 86.440,101.976 86.842,101.829 87.429 M101.029 90.629 C 100.881 91.215,100.838 91.772,100.932 91.866 C 101.027 91.960,101.224 91.558,101.371 90.971 C 101.519 90.385,101.562 89.828,101.468 89.734 C 101.373 89.640,101.176 90.042,101.029 90.629 M202.800 91.310 C 202.800 91.371,204.195 92.766,205.900 94.410 L 209.000 97.400 206.010 94.300 C 203.233 91.421,202.800 91.017,202.800 91.310 M298.468 92.200 C 298.462 92.640,298.611 93.360,298.800 93.800 C 299.238 94.819,299.238 93.768,298.800 92.400 C 298.543 91.596,298.477 91.557,298.468 92.200 M100.250 94.450 C 99.917 96.117,100.240 96.440,100.600 94.800 C 100.752 94.109,100.793 93.459,100.691 93.358 C 100.589 93.256,100.391 93.747,100.250 94.450 M254.592 110.600 C 246.049 119.070,238.777 126.000,238.433 126.000 C 238.089 126.000,234.025 122.265,229.403 117.700 L 221.000 109.400 229.396 117.900 C 234.245 122.808,238.102 126.400,238.524 126.400 C 238.953 126.400,245.730 119.945,254.902 110.800 C 263.507 102.220,270.453 95.200,270.337 95.200 C 270.221 95.200,263.135 102.130,254.592 110.600 M299.268 95.800 C 299.262 96.240,299.411 96.960,299.600 97.400 C 300.038 98.419,300.038 97.368,299.600 96.000 C 299.343 95.196,299.277 95.157,299.268 95.800 M277.200 96.382 C 276.442 96.611,276.681 96.683,278.186 96.678 C 279.531 96.673,279.918 96.572,279.386 96.363 C 278.451 95.998,278.470 95.998,277.200 96.382 M280.800 96.911 C 280.800 96.987,281.385 97.478,282.100 98.001 C 282.904 98.590,283.184 98.687,282.833 98.255 C 282.300 97.599,280.800 96.607,280.800 96.911 M258.216 113.984 C 248.986 123.216,241.517 130.821,241.618 130.884 C 241.718 130.948,249.358 123.395,258.595 114.100 C 267.832 104.805,275.301 97.200,275.193 97.200 C 275.085 97.200,267.445 104.753,258.216 113.984 M300.080 100.200 C 300.080 100.640,300.224 101.450,300.400 102.000 C 300.654 102.792,300.720 102.833,300.720 102.200 C 300.720 101.760,300.576 100.950,300.400 100.400 C 300.146 99.608,300.080 99.567,300.080 100.200 M207.056 101.409 C 206.207 102.174,205.676 102.800,205.877 102.800 C 206.079 102.800,206.854 102.170,207.600 101.400 C 209.336 99.609,209.049 99.614,207.056 101.409 M98.588 106.188 C 98.431 107.864,98.389 109.323,98.495 109.429 C 98.601 109.534,98.812 108.246,98.965 106.565 C 99.117 104.884,99.159 103.426,99.058 103.324 C 98.957 103.223,98.745 104.512,98.588 106.188 M283.021 105.012 C 282.612 105.772,276.185 112.422,268.739 119.790 C 261.293 127.159,255.200 133.324,255.200 133.492 C 255.200 133.659,261.328 127.677,268.818 120.198 C 281.048 107.986,284.439 104.305,283.928 103.795 C 283.838 103.705,283.430 104.253,283.021 105.012 M200.192 108.100 L 196.200 112.200 200.300 108.208 C 204.108 104.499,204.582 104.000,204.292 104.000 C 204.233 104.000,202.388 105.845,200.192 108.100 M300.885 105.800 C 300.877 106.460,301.010 107.900,301.182 109.000 C 301.436 110.635,301.497 110.745,301.517 109.600 C 301.530 108.830,301.397 107.390,301.220 106.400 C 300.988 105.091,300.896 104.928,300.885 105.800 M216.386 111.900 L 214.200 114.200 216.500 112.014 C 217.765 110.811,218.800 109.776,218.800 109.714 C 218.800 109.417,218.418 109.763,216.386 111.900 M189.885 117.885 C 186.638 121.092,184.034 123.768,184.098 123.831 C 184.161 123.894,186.869 121.322,190.115 118.115 C 193.362 114.908,195.966 112.232,195.902 112.169 C 195.839 112.106,193.131 114.678,189.885 117.885 M209.900 118.575 C 207.755 120.811,206.000 122.779,206.000 122.949 C 206.000 123.118,206.225 123.005,206.500 122.697 C 206.775 122.389,208.706 120.396,210.792 118.268 C 212.878 116.141,214.408 114.425,214.192 114.455 C 213.976 114.485,212.045 116.339,209.900 118.575 M98.430 125.433 C 98.446 126.295,98.613 127.810,98.801 128.800 C 99.058 130.153,99.088 129.806,98.923 127.400 C 98.690 124.022,98.379 122.782,98.430 125.433 M196.293 132.900 C 192.217 137.135,188.926 140.648,188.980 140.706 C 189.072 140.804,190.553 139.298,200.386 129.100 C 202.455 126.955,204.047 125.200,203.925 125.200 C 203.803 125.200,200.369 128.665,196.293 132.900 M301.013 128.213 C 300.857 129.671,300.814 130.947,300.916 131.050 C 301.019 131.152,301.231 130.044,301.387 128.587 C 301.543 127.129,301.586 125.853,301.484 125.750 C 301.381 125.648,301.169 126.756,301.013 128.213 M176.200 131.200 C 173.567 133.840,171.503 136.000,171.613 136.000 C 171.723 136.000,173.967 133.840,176.600 131.200 C 179.233 128.560,181.297 126.400,181.187 126.400 C 181.077 126.400,178.833 128.560,176.200 131.200 M241.043 132.233 C 240.712 133.095,240.747 134.898,241.106 135.462 C 241.268 135.716,241.400 134.951,241.400 133.762 C 241.400 131.371,241.390 131.328,241.043 132.233 M99.295 133.200 C 99.295 133.750,99.432 134.740,99.600 135.400 C 99.872 136.470,99.905 136.492,99.905 135.600 C 99.905 135.050,99.768 134.060,99.600 133.400 C 99.328 132.330,99.295 132.308,99.295 133.200 M300.240 134.440 C 300.093 135.357,300.052 136.185,300.147 136.280 C 300.242 136.376,300.446 135.710,300.600 134.800 C 300.754 133.890,300.796 133.062,300.693 132.960 C 300.590 132.857,300.387 133.523,300.240 134.440 M252.187 136.100 L 249.800 138.600 252.300 136.213 C 253.675 134.899,254.800 133.774,254.800 133.713 C 254.800 133.417,254.405 133.778,252.187 136.100 M165.491 141.491 C 162.473 144.486,160.051 146.984,160.108 147.041 C 160.165 147.098,162.689 144.702,165.716 141.716 C 168.744 138.731,171.166 136.233,171.100 136.166 C 171.033 136.099,168.509 138.496,165.491 141.491 M242.017 136.995 C 242.923 138.230,244.141 139.175,244.800 139.155 C 245.333 139.139,245.333 139.113,244.800 138.919 C 244.470 138.800,243.578 138.139,242.817 137.451 C 242.057 136.763,241.697 136.558,242.017 136.995 M100.068 138.400 C 100.088 139.439,100.718 141.146,100.732 140.200 C 100.738 139.760,100.589 139.040,100.400 138.600 C 100.189 138.110,100.061 138.032,100.068 138.400 M299.429 139.029 C 299.281 139.615,299.238 140.172,299.332 140.266 C 299.427 140.360,299.624 139.958,299.771 139.371 C 299.919 138.785,299.962 138.228,299.868 138.134 C 299.773 138.040,299.576 138.442,299.429 139.029 M298.629 142.629 C 298.481 143.215,298.438 143.772,298.532 143.866 C 298.627 143.960,298.824 143.558,298.971 142.971 C 299.119 142.385,299.162 141.828,299.068 141.734 C 298.973 141.640,298.776 142.042,298.629 142.629 M100.868 142.400 C 100.888 143.439,101.518 145.146,101.532 144.200 C 101.538 143.760,101.389 143.040,101.200 142.600 C 100.989 142.110,100.861 142.032,100.868 142.400 M179.005 151.000 C 174.663 155.510,171.195 159.200,171.298 159.200 C 171.473 159.200,173.012 157.634,183.387 146.900 C 185.566 144.645,187.248 142.800,187.125 142.800 C 187.001 142.800,183.347 146.490,179.005 151.000 M101.656 146.000 C 101.656 146.330,101.811 146.960,102.000 147.400 C 102.217 147.904,102.344 147.978,102.344 147.600 C 102.344 147.270,102.189 146.640,102.000 146.200 C 101.783 145.696,101.656 145.622,101.656 146.000 M151.598 154.904 C 149.067 157.377,144.362 161.965,141.143 165.100 C 137.925 168.235,135.406 170.793,135.546 170.784 C 135.859 170.764,156.678 150.434,156.400 150.419 C 156.290 150.414,154.129 152.432,151.598 154.904 M161.485 169.300 C 157.191 173.755,153.722 177.447,153.777 177.505 C 153.869 177.602,155.366 176.081,165.787 165.300 C 167.966 163.045,169.647 161.200,169.522 161.200 C 169.396 161.200,165.780 164.845,161.485 169.300 M130.400 175.400 C 129.428 176.390,128.723 177.200,128.833 177.200 C 128.943 177.200,129.828 176.390,130.800 175.400 C 131.772 174.410,132.477 173.600,132.367 173.600 C 132.257 173.600,131.372 174.410,130.400 175.400 M112.034 174.200 C 112.034 174.420,112.378 175.230,112.800 176.000 C 113.222 176.770,113.566 177.220,113.566 177.000 C 113.566 176.780,113.222 175.970,112.800 175.200 C 112.378 174.430,112.034 173.980,112.034 174.200 M147.392 184.100 L 143.800 187.800 147.500 184.208 C 150.936 180.872,151.382 180.400,151.092 180.400 C 151.032 180.400,149.367 182.065,147.392 184.100 M282.200 184.800 C 281.859 185.460,281.669 186.000,281.779 186.000 C 281.889 186.000,282.259 185.460,282.600 184.800 C 282.941 184.140,283.131 183.600,283.021 183.600 C 282.911 183.600,282.541 184.140,282.200 184.800 M119.000 188.400 C 119.341 189.060,119.711 189.600,119.821 189.600 C 119.931 189.600,119.741 189.060,119.400 188.400 C 119.059 187.740,118.689 187.200,118.579 187.200 C 118.469 187.200,118.659 187.740,119.000 188.400 M127.200 188.255 C 127.200 188.468,127.875 189.263,128.700 190.022 L 130.200 191.400 128.800 189.804 C 128.030 188.927,127.355 188.132,127.300 188.038 C 127.245 187.944,127.200 188.041,127.200 188.255 M142.200 189.247 C 141.540 189.908,140.505 190.712,139.900 191.035 C 139.295 191.357,138.800 191.711,138.800 191.821 C 138.800 191.931,139.295 191.749,139.900 191.417 C 141.286 190.656,144.336 188.006,143.800 188.029 C 143.580 188.038,142.860 188.586,142.200 189.247 M279.800 189.200 C 279.459 189.860,279.269 190.400,279.379 190.400 C 279.489 190.400,279.859 189.860,280.200 189.200 C 280.541 188.540,280.731 188.000,280.621 188.000 C 280.511 188.000,280.141 188.540,279.800 189.200 M135.200 192.400 L 133.000 192.670 135.000 192.729 C 136.100 192.761,137.270 192.613,137.600 192.400 C 137.930 192.187,138.020 192.039,137.800 192.071 C 137.580 192.104,136.410 192.252,135.200 192.400 M122.200 194.400 C 122.541 195.060,122.911 195.600,123.021 195.600 C 123.131 195.600,122.941 195.060,122.600 194.400 C 122.259 193.740,121.889 193.200,121.779 193.200 C 121.669 193.200,121.859 193.740,122.200 194.400 M275.000 197.600 C 274.659 198.260,274.469 198.800,274.579 198.800 C 274.689 198.800,275.059 198.260,275.400 197.600 C 275.741 196.940,275.931 196.400,275.821 196.400 C 275.711 196.400,275.341 196.940,275.000 197.600 M273.508 200.100 C 272.633 201.449,271.848 203.056,272.287 202.600 C 272.848 202.017,274.498 199.200,274.279 199.200 C 274.176 199.200,273.829 199.605,273.508 200.100 M128.600 205.600 C 128.941 206.260,129.311 206.800,129.421 206.800 C 129.531 206.800,129.341 206.260,129.000 205.600 C 128.659 204.940,128.289 204.400,128.179 204.400 C 128.069 204.400,128.259 204.940,128.600 205.600 M270.308 205.300 C 269.433 206.649,268.648 208.256,269.087 207.800 C 269.648 207.217,271.298 204.400,271.079 204.400 C 270.976 204.400,270.629 204.805,270.308 205.300 M130.430 208.600 C 130.924 209.480,131.500 210.380,131.710 210.600 C 132.309 211.228,130.939 208.694,130.196 207.800 C 129.830 207.360,129.935 207.720,130.430 208.600 M265.917 212.300 C 264.685 214.169,263.917 215.600,264.146 215.600 C 264.242 215.600,264.675 214.999,265.108 214.265 C 265.541 213.531,266.210 212.451,266.594 211.865 C 266.978 211.279,267.205 210.800,267.099 210.800 C 266.993 210.800,266.461 211.475,265.917 212.300 M132.830 212.600 C 133.324 213.480,133.900 214.380,134.110 214.600 C 134.709 215.228,133.339 212.694,132.596 211.800 C 132.230 211.360,132.335 211.720,132.830 212.600 M136.830 219.000 C 137.324 219.880,137.900 220.780,138.110 221.000 C 138.709 221.628,137.339 219.094,136.596 218.200 C 136.230 217.760,136.335 218.120,136.830 219.000 M257.522 225.300 C 256.097 227.450,254.898 229.577,255.337 229.175 C 255.546 228.984,257.989 225.276,258.944 223.700 C 259.820 222.255,258.718 223.494,257.522 225.300 M140.211 224.400 C 141.008 225.858,151.734 241.861,152.275 242.400 C 152.606 242.730,150.135 238.860,146.782 233.800 C 141.397 225.671,139.142 222.446,140.211 224.400 M243.898 245.900 C 241.753 248.875,239.826 251.861,240.478 251.200 C 241.243 250.424,245.673 244.000,245.443 244.000 C 245.347 244.000,244.652 244.855,243.898 245.900 M158.625 251.773 C 159.635 253.218,160.545 254.400,160.646 254.400 C 160.919 254.400,157.672 249.692,157.196 249.398 C 156.972 249.259,157.615 250.328,158.625 251.773 M237.529 255.100 C 236.488 256.324,235.028 258.554,235.430 258.305 C 235.877 258.029,238.532 254.400,238.287 254.400 C 238.197 254.400,237.856 254.715,237.529 255.100 M163.602 258.633 C 163.603 258.835,164.068 259.540,164.635 260.200 L 165.666 261.400 164.763 260.000 C 163.604 258.204,163.600 258.199,163.602 258.633 M232.975 261.468 C 232.359 262.276,232.059 262.811,232.309 262.656 C 232.821 262.340,234.553 260.000,234.275 260.000 C 234.176 260.000,233.591 260.661,232.975 261.468 M167.602 264.233 C 167.603 264.435,168.068 265.140,168.635 265.800 L 169.666 267.000 168.763 265.600 C 167.604 263.804,167.600 263.799,167.602 264.233 M229.544 266.300 C 228.393 267.689,227.906 268.400,228.104 268.400 C 228.214 268.400,228.786 267.770,229.373 267.000 C 230.463 265.571,230.595 265.032,229.544 266.300 M170.340 268.316 C 170.833 269.009,171.444 269.704,171.697 269.860 C 171.950 270.017,171.754 269.577,171.260 268.884 C 170.767 268.191,170.156 267.496,169.903 267.340 C 169.650 267.183,169.846 267.623,170.340 268.316 M226.575 270.268 C 225.959 271.076,225.659 271.611,225.909 271.456 C 226.421 271.140,228.153 268.800,227.875 268.800 C 227.776 268.800,227.191 269.461,226.575 270.268 M172.791 271.588 C 173.257 272.241,173.842 272.902,174.091 273.056 C 174.341 273.211,174.041 272.676,173.425 271.868 C 172.088 270.115,171.584 269.892,172.791 271.588 M224.175 273.468 C 223.559 274.276,223.259 274.811,223.509 274.656 C 224.021 274.340,225.753 272.000,225.475 272.000 C 225.376 272.000,224.791 272.661,224.175 273.468 M175.191 274.788 C 175.657 275.441,176.242 276.102,176.491 276.256 C 176.741 276.411,176.441 275.876,175.825 275.068 C 174.488 273.315,173.984 273.092,175.191 274.788 M177.775 278.132 C 178.391 278.939,178.976 279.600,179.075 279.600 C 179.353 279.600,177.621 277.260,177.109 276.944 C 176.859 276.789,177.159 277.324,177.775 278.132 M219.375 279.868 C 218.759 280.676,218.459 281.211,218.709 281.056 C 219.221 280.740,220.953 278.400,220.675 278.400 C 220.576 278.400,219.991 279.061,219.375 279.868 M217.544 282.300 C 216.393 283.689,215.906 284.400,216.104 284.400 C 216.214 284.400,216.786 283.770,217.373 283.000 C 218.463 281.571,218.595 281.032,217.544 282.300 M182.600 284.400 C 183.616 285.720,184.537 286.800,184.647 286.800 C 184.757 286.800,184.016 285.720,183.000 284.400 C 181.984 283.080,181.063 282.000,180.953 282.000 C 180.843 282.000,181.584 283.080,182.600 284.400 M214.333 286.500 C 211.474 290.064,210.215 291.761,210.611 291.516 C 211.091 291.220,216.112 284.800,215.864 284.800 C 215.772 284.800,215.083 285.565,214.333 286.500 M198.497 304.200 C 199.573 305.353,199.609 305.361,200.297 304.610 C 200.968 303.878,200.968 303.868,200.288 304.381 C 199.673 304.845,199.430 304.789,198.488 303.970 L 197.400 303.023 198.497 304.200 " stroke="none" fill="#f4d4bc" fill-rule="evenodd"></path><path id="path4" d="M128.800 41.400 C 127.161 43.050,125.910 44.400,126.020 44.400 C 126.130 44.400,127.561 43.050,129.200 41.400 C 130.839 39.750,132.090 38.400,131.980 38.400 C 131.870 38.400,130.439 39.750,128.800 41.400 M205.400 94.400 C 207.150 96.160,208.671 97.600,208.781 97.600 C 208.891 97.600,207.550 96.160,205.800 94.400 C 204.050 92.640,202.529 91.200,202.419 91.200 C 202.309 91.200,203.650 92.640,205.400 94.400 M257.998 113.900 L 242.200 129.800 258.100 114.002 C 266.845 105.313,274.000 98.158,274.000 98.102 C 274.000 97.820,272.681 99.122,257.998 113.900 M253.591 111.900 L 250.200 115.400 253.700 112.009 C 255.625 110.144,257.200 108.569,257.200 108.509 C 257.200 108.218,256.741 108.649,253.591 111.900 M197.381 110.500 L 195.800 112.200 197.500 110.619 C 199.081 109.148,199.384 108.800,199.081 108.800 C 199.016 108.800,198.251 109.565,197.381 110.500 M98.493 110.800 C 98.493 111.570,98.575 111.885,98.676 111.500 C 98.776 111.115,98.776 110.485,98.676 110.100 C 98.575 109.715,98.493 110.030,98.493 110.800 M215.578 113.100 L 214.200 114.600 215.700 113.222 C 217.096 111.938,217.384 111.600,217.078 111.600 C 217.012 111.600,216.337 112.275,215.578 113.100 M227.800 116.800 C 229.992 119.000,231.875 120.800,231.985 120.800 C 232.095 120.800,230.392 119.000,228.200 116.800 C 226.008 114.600,224.125 112.800,224.015 112.800 C 223.905 112.800,225.608 114.600,227.800 116.800 M234.600 123.600 C 235.683 124.700,236.660 125.600,236.770 125.600 C 236.880 125.600,236.083 124.700,235.000 123.600 C 233.917 122.500,232.940 121.600,232.830 121.600 C 232.720 121.600,233.517 122.500,234.600 123.600 M198.378 131.100 L 197.000 132.600 198.500 131.222 C 199.896 129.938,200.184 129.600,199.878 129.600 C 199.812 129.600,199.137 130.275,198.378 131.100 M172.800 134.200 C 171.828 135.190,171.123 136.000,171.233 136.000 C 171.343 136.000,172.228 135.190,173.200 134.200 C 174.172 133.210,174.877 132.400,174.767 132.400 C 174.657 132.400,173.772 133.210,172.800 134.200 M252.786 135.900 L 250.600 138.200 252.900 136.014 C 254.165 134.811,255.200 133.776,255.200 133.714 C 255.200 133.417,254.818 133.763,252.786 135.900 M180.975 149.300 L 179.800 150.600 181.100 149.425 C 182.312 148.330,182.584 148.000,182.275 148.000 C 182.206 148.000,181.621 148.585,180.975 149.300 M148.581 157.700 L 147.000 159.400 148.700 157.819 C 150.281 156.348,150.584 156.000,150.281 156.000 C 150.216 156.000,149.451 156.765,148.581 157.700 M163.375 167.700 L 162.200 169.000 163.500 167.825 C 164.712 166.730,164.984 166.400,164.675 166.400 C 164.606 166.400,164.021 166.985,163.375 167.700 M126.101 183.800 C 126.105 184.680,126.187 184.993,126.283 184.495 C 126.379 183.998,126.375 183.278,126.275 182.895 C 126.175 182.513,126.096 182.920,126.101 183.800 M145.381 186.500 L 143.800 188.200 145.500 186.619 C 147.081 185.148,147.384 184.800,147.081 184.800 C 147.016 184.800,146.251 185.565,145.381 186.500 " stroke="none" fill="#f4d4b3" fill-rule="evenodd"></path></g></svg>